<svg xmlns="http://www.w3.org/2000/svg" viewBox="0 0 64 64">
    <circle cx="32" cy="32" r="31" fill="#020617" />

    <path d="M32 32 L32 5 A27 27 0 0 1 55.382 18.5 Z" fill="#ef4444" />
    <path d="M32 32 L55.382 18.5 A27 27 0 0 1 55.382 45.5 Z" fill="#f59e0b" />
    <path d="M32 32 L55.382 45.5 A27 27 0 0 1 32 59 Z" fill="#eab308" />
    <path d="M32 32 L32 59 A27 27 0 0 1 8.618 45.5 Z" fill="#22c55e" />
    <path d="M32 32 L8.618 45.5 A27 27 0 0 1 8.618 18.5 Z" fill="#06b6d4" />
    <path d="M32 32 L8.618 18.5 A27 27 0 0 1 32 5 Z" fill="#3b82f6" />

    <circle cx="32" cy="32" r="27" fill="none" stroke="#0f172a" stroke-width="2" />
    <circle cx="32" cy="32" r="7" fill="#f8fafc" />
    <circle cx="32" cy="32" r="3" fill="#0f172a" />

    <path d="M55 32 L63 27.5 V36.5 Z" fill="#f8fafc" />
</svg>
